<svg width="98" height="17" viewBox="0 0 98 17" fill="none" xmlns="http://www.w3.org/2000/svg">
<path d="M91.0149 7.48618V13.3551H88.6543V0H90.9628V5.04078H91.0801C91.3149 4.47562 91.6779 4.03002 92.1691 3.70396C92.6647 3.37356 93.2951 3.20836 94.0603 3.20836C94.7558 3.20836 95.3623 3.354 95.8796 3.64527C96.397 3.93655 96.7969 4.36259 97.0795 4.9234C97.3664 5.48421 97.5099 6.16893 97.5099 6.97754V13.3551H95.1493V7.34272C95.1493 6.66887 94.9754 6.14501 94.6276 5.77114C94.2841 5.39292 93.8016 5.20381 93.1799 5.20381C92.7626 5.20381 92.3887 5.2951 92.0583 5.47769C91.7322 5.65594 91.4757 5.9146 91.2888 6.2537C91.1062 6.59279 91.0149 7.00362 91.0149 7.48618Z" fill="white"/>
<path d="M82.4225 13.5504C81.4227 13.5504 80.564 13.3309 79.8467 12.8918C79.1338 12.4527 78.5838 11.8462 78.1969 11.0724C77.8143 10.2942 77.623 9.39867 77.623 8.38573C77.623 7.36844 77.8187 6.47071 78.2099 5.69253C78.6012 4.91001 79.1533 4.30137 79.8663 3.86663C80.5836 3.42755 81.4313 3.20801 82.4095 3.20801C83.2225 3.20801 83.942 3.35799 84.568 3.65796C85.1983 3.95358 85.7005 4.3731 86.0743 4.91653C86.4482 5.4556 86.6612 6.08597 86.7134 6.80763H84.4571C84.3658 6.32507 84.1485 5.92294 83.805 5.60124C83.4659 5.27518 83.0116 5.11216 82.4421 5.11216C81.9596 5.11216 81.5357 5.24258 81.1705 5.50342C80.8053 5.75992 80.5206 6.12944 80.3162 6.612C80.1163 7.09456 80.0163 7.67276 80.0163 8.34661C80.0163 9.02914 80.1163 9.61604 80.3162 10.1073C80.5162 10.5942 80.7966 10.9702 81.1575 11.2354C81.5226 11.4963 81.9509 11.6267 82.4421 11.6267C82.7899 11.6267 83.1007 11.5615 83.3746 11.4311C83.6529 11.2963 83.8854 11.1028 84.0724 10.8507C84.2593 10.5985 84.3876 10.2921 84.4571 9.93122H86.7134C86.6569 10.6398 86.4482 11.268 86.0874 11.8158C85.7266 12.3592 85.2353 12.7853 84.6136 13.0939C83.992 13.3983 83.2616 13.5504 82.4225 13.5504Z" fill="white"/>
<path d="M70.3909 13.5569C69.7562 13.5569 69.1845 13.4439 68.6758 13.2178C68.1716 12.9874 67.7716 12.6483 67.476 12.2006C67.1847 11.7528 67.0391 11.2007 67.0391 10.5442C67.0391 9.97904 67.1434 9.5117 67.3521 9.14217C67.5607 8.77265 67.8455 8.47703 68.2063 8.25531C68.5672 8.03359 68.9736 7.86622 69.4258 7.75319C69.8822 7.63581 70.3539 7.55104 70.8408 7.49887C71.4277 7.438 71.9038 7.38366 72.269 7.33584C72.6341 7.28367 72.8993 7.20542 73.0645 7.10108C73.2341 6.9924 73.3188 6.82502 73.3188 6.59896V6.55983C73.3188 6.06858 73.1732 5.68819 72.8819 5.41865C72.5907 5.14911 72.1711 5.01434 71.6234 5.01434C71.0452 5.01434 70.5865 5.14042 70.2474 5.39256C69.9127 5.64471 69.6866 5.94251 69.5692 6.28595L67.3651 5.97294C67.539 5.36431 67.8259 4.85566 68.2259 4.44701C68.6259 4.03401 69.1149 3.72534 69.6931 3.52102C70.2713 3.31234 70.9104 3.20801 71.6103 3.20801C72.0929 3.20801 72.5733 3.26452 73.0515 3.37756C73.5297 3.49059 73.9666 3.67752 74.3622 3.93837C74.7578 4.19486 75.0752 4.54483 75.3143 4.98826C75.5577 5.43169 75.6795 5.98598 75.6795 6.65113V13.3548H73.4101V11.9788H73.3319C73.1884 12.2571 72.9863 12.5179 72.7254 12.7614C72.4689 13.0005 72.1451 13.1939 71.7538 13.3417C71.3669 13.4852 70.9126 13.5569 70.3909 13.5569ZM71.0039 11.8223C71.4777 11.8223 71.8886 11.7289 72.2363 11.5419C72.5841 11.3506 72.8515 11.0985 73.0384 10.7855C73.2297 10.4725 73.3254 10.1312 73.3254 9.76168V8.58136C73.2515 8.64223 73.1254 8.69874 72.9471 8.75091C72.7733 8.80308 72.5776 8.84873 72.3602 8.88785C72.1429 8.92698 71.9277 8.96176 71.7147 8.99219C71.5016 9.02262 71.3169 9.04871 71.1604 9.07044C70.8082 9.11826 70.4931 9.19652 70.2148 9.3052C69.9366 9.41389 69.717 9.56604 69.5562 9.76168C69.3953 9.95296 69.3149 10.2008 69.3149 10.5051C69.3149 10.9398 69.4736 11.268 69.791 11.4898C70.1083 11.7115 70.5126 11.8223 71.0039 11.8223Z" fill="white"/>
<path d="M61.06 13.5504C60.0558 13.5504 59.1885 13.3417 58.4581 12.9244C57.7321 12.5027 57.1735 11.9071 56.7822 11.1376C56.3909 10.3638 56.1953 9.45301 56.1953 8.40529C56.1953 7.37497 56.3909 6.47071 56.7822 5.69253C57.1778 4.91001 57.7299 4.30137 58.4386 3.86663C59.1472 3.42755 59.9797 3.20801 60.9361 3.20801C61.5535 3.20801 62.136 3.308 62.6838 3.50798C63.2359 3.70361 63.7228 4.00792 64.1445 4.42093C64.5705 4.83393 64.9053 5.35996 65.1487 5.99902C65.3922 6.63374 65.5139 7.39018 65.5139 8.26835V8.99219H57.3039V7.40105H63.2511C63.2468 6.94892 63.1489 6.54679 62.9577 6.19465C62.7664 5.83817 62.499 5.55776 62.1556 5.35344C61.8165 5.14911 61.4209 5.04695 60.9687 5.04695C60.4862 5.04695 60.0623 5.16433 59.6971 5.39908C59.3319 5.6295 59.0472 5.93381 58.8429 6.31203C58.6429 6.68591 58.5407 7.09673 58.5364 7.54451V8.9335C58.5364 9.51605 58.6429 10.016 58.8559 10.4333C59.0689 10.8463 59.3667 11.1637 59.7493 11.3854C60.1319 11.6028 60.5796 11.7115 61.0926 11.7115C61.4361 11.7115 61.7469 11.6637 62.0251 11.568C62.3034 11.468 62.5446 11.3224 62.749 11.1311C62.9533 10.9398 63.1076 10.7029 63.212 10.4203L65.4161 10.6681C65.277 11.2507 65.0118 11.7593 64.6205 12.194C64.2336 12.6244 63.738 12.9592 63.1337 13.1983C62.5294 13.433 61.8382 13.5504 61.06 13.5504Z" fill="white"/>
<path d="M49.7559 13.3542V3.3378H52.0448V5.00719H52.1491C52.3317 4.42899 52.6447 3.98338 53.0881 3.67037C53.5359 3.35302 54.0467 3.19434 54.6206 3.19434C54.751 3.19434 54.8966 3.20086 55.0575 3.2139C55.2227 3.22259 55.3596 3.23781 55.4683 3.25955V5.43106C55.3683 5.39628 55.2096 5.36585 54.9923 5.33977C54.7793 5.30933 54.5728 5.29412 54.3728 5.29412C53.9424 5.29412 53.5555 5.38759 53.212 5.57452C52.8729 5.75711 52.6056 6.01144 52.4099 6.33749C52.2143 6.66354 52.1165 7.03959 52.1165 7.46563V13.3542H49.7559Z" fill="white"/>
<path d="M48.1233 3.33789L44.5563 13.3542H41.9479L38.3809 3.33789H40.898L43.1999 10.7784H43.3043L45.6127 3.33789H48.1233Z" fill="white"/>
<path d="M31.8733 13.5569C31.2386 13.5569 30.6669 13.4439 30.1583 13.2178C29.654 12.9874 29.254 12.6483 28.9584 12.2006C28.6671 11.7528 28.5215 11.2007 28.5215 10.5442C28.5215 9.97904 28.6258 9.5117 28.8345 9.14217C29.0432 8.77265 29.3279 8.47703 29.6888 8.25531C30.0496 8.03359 30.4561 7.86622 30.9082 7.75319C31.3647 7.63581 31.8364 7.55104 32.3233 7.49887C32.9102 7.438 33.3862 7.38366 33.7514 7.33584C34.1166 7.28367 34.3817 7.20542 34.5469 7.10108C34.7165 6.9924 34.8013 6.82502 34.8013 6.59896V6.55983C34.8013 6.06858 34.6556 5.68819 34.3644 5.41865C34.0731 5.14911 33.6536 5.01434 33.1058 5.01434C32.5276 5.01434 32.0689 5.14042 31.7298 5.39256C31.3951 5.64471 31.169 5.94251 31.0517 6.28595L28.8475 5.97294C29.0214 5.36431 29.3084 4.85566 29.7083 4.44701C30.1083 4.03401 30.5974 3.72534 31.1756 3.52102C31.7538 3.31234 32.3928 3.20801 33.0927 3.20801C33.5753 3.20801 34.0557 3.26452 34.5339 3.37756C35.0121 3.49059 35.449 3.67752 35.8446 3.93837C36.2402 4.19486 36.5576 4.54483 36.7967 4.98826C37.0402 5.43169 37.1619 5.98598 37.1619 6.65113V13.3548H34.8926V11.9788H34.8143C34.6708 12.2571 34.4687 12.5179 34.2079 12.7614C33.9514 13.0005 33.6275 13.1939 33.2362 13.3417C32.8493 13.4852 32.395 13.5569 31.8733 13.5569ZM32.4863 11.8223C32.9602 11.8223 33.371 11.7289 33.7188 11.5419C34.0666 11.3506 34.3339 11.0985 34.5209 10.7855C34.7121 10.4725 34.8078 10.1312 34.8078 9.76168V8.58136C34.7339 8.64223 34.6078 8.69874 34.4296 8.75091C34.2557 8.80308 34.06 8.84873 33.8427 8.88785C33.6253 8.92698 33.4101 8.96176 33.1971 8.99219C32.9841 9.02262 32.7993 9.04871 32.6428 9.07044C32.2907 9.11826 31.9755 9.19652 31.6972 9.3052C31.419 9.41389 31.1995 9.56604 31.0386 9.76168C30.8778 9.95296 30.7973 10.2008 30.7973 10.5051C30.7973 10.9398 30.956 11.268 31.2734 11.4898C31.5907 11.7115 31.995 11.8223 32.4863 11.8223Z" fill="white"/>
<path d="M20.1614 7.48583V13.3548H17.8008V3.33843H20.0571V5.04043H20.1744C20.4049 4.47962 20.7722 4.03401 21.2765 3.70361C21.7852 3.37321 22.4133 3.20801 23.1611 3.20801C23.8523 3.20801 24.4544 3.35582 24.9674 3.65144C25.4848 3.94706 25.8847 4.37528 26.1673 4.93609C26.4542 5.4969 26.5955 6.17727 26.5912 6.97718V13.3548H24.2305V7.34236C24.2305 6.67287 24.0567 6.14901 23.7089 5.77078C23.3654 5.39256 22.8894 5.20345 22.2808 5.20345C21.8678 5.20345 21.5004 5.29475 21.1787 5.47734C20.8613 5.65558 20.6114 5.91425 20.4288 6.25334C20.2505 6.59244 20.1614 7.00327 20.1614 7.48583Z" fill="white"/>
<path d="M12.5564 12.7446L13.1437 10.8594C13.236 10.5634 13.2002 10.2395 13.0455 9.97149L9.71918 4.21018C9.56422 3.94177 9.30181 3.74923 8.99937 3.68119L7.07302 3.2472C6.54244 3.12751 6.00475 3.40525 5.79504 3.90748L2.82929 11.0068C2.69416 11.3302 2.71683 11.69 2.89195 11.9933C3.06707 12.2966 3.36664 12.496 3.71454 12.5411L11.3456 13.5223C11.8854 13.5918 12.3944 13.2652 12.5564 12.7457L12.5564 12.7446ZM8.84051 4.38564C8.94684 4.40957 9.03902 4.47712 9.09347 4.57143L12.4198 10.3327C12.474 10.4266 12.4864 10.5403 12.4542 10.6447L11.9208 12.3576L7.0904 3.99113L8.84094 4.38539L8.84051 4.38564ZM3.80697 11.8235C3.68479 11.8076 3.57915 11.7378 3.51774 11.6315C3.45633 11.5251 3.44833 11.399 3.49609 11.285L6.42258 4.27981L11.3372 12.7921L3.80726 11.8239L3.80697 11.8235Z" fill="#F200FF"/>
</svg>
